<svg width="160" height="27" viewBox="0 0 160 27" fill="none" xmlns="http://www.w3.org/2000/svg">
<g clip-path="url(#clip0_28_455)">
<path d="M11.196 26.0759H13.912V26.6446H0.3264V26.0759H3.2248V2.98492L0 1.0661H14.42L11.196 2.98492V26.0759ZM18.6336 10.628L28.5496 26.0759H30.3608V26.6446H19.3832L11.5568 14.3888" fill="white"/>
<path d="M46.9936 26.0759V26.6446H37.936V24.6199C36.2336 26.0414 34.3128 27 32.32 27C29.9648 27 28.3712 25.686 28.3712 23.4479C28.3712 20.1798 31.9216 18.0123 37.936 17.3729C37.936 13.4655 36.3424 11.5106 33.5888 11.5106C31.9576 11.5106 30.8352 11.9373 29.6024 12.8606L29.4224 12.6826C31.8864 9.98319 34.5664 8.52643 38.1896 8.52643C42.7544 8.52643 45.1816 11.0846 45.1816 16.2354V26.0759H46.9936ZM37.936 24.1225V17.835C35.7624 18.439 34.9288 19.7891 34.9288 21.6718C34.9288 23.342 35.6536 24.2292 37.1024 24.2292C37.3833 24.2215 37.6626 24.1858 37.936 24.1225Z" fill="white"/>
<path d="M46.5248 26.0759H48.3368V4.93826L46.272 3.19751L55.5832 0V26.0759H57.3944V26.6446H46.5248V26.0759ZM57.8664 17.6569C57.8664 12.5767 61.924 8.52644 67.8288 8.52644C73.8072 8.52644 78.1184 12.0793 78.1184 17.6569C78.1184 22.8439 74.7488 27 67.8648 27C62.6488 27 57.8664 23.3765 57.8664 17.6569ZM73.4088 23.9092C73.4088 20.9258 67.3224 9.80592 64.1336 9.80592C63.2272 9.80592 62.6848 10.4453 62.6848 11.5467C62.6848 15.0282 68.952 25.7221 71.9232 25.7221C72.9016 25.7213 73.4088 25.1173 73.4088 23.9092ZM101.454 26.0759V26.6446H90.9464V26.0759H92.396V15.3835C92.396 12.612 91.7072 11.6887 90.2224 11.6887C89.4976 11.6887 88.7728 11.902 88.0488 12.2221V26.0759H89.4976V26.6446H78.9904V26.0759H80.8024V13.1093L78.7376 11.3686L88.0488 8.17107V11.724C90.404 9.73453 92.5048 8.34915 94.9688 8.34915C98.048 8.34915 99.6424 10.2319 99.6424 13.8554V26.0759H101.454ZM120.466 26.0759V26.6446H111.408V24.6199C109.706 26.0414 107.785 27 105.792 27C103.437 27 101.843 25.686 101.843 23.4479C101.843 20.1798 105.394 18.0123 111.408 17.3729C111.408 13.4655 109.814 11.5106 107.061 11.5106C105.43 11.5106 104.307 11.9373 103.074 12.8607L102.894 12.6826C105.358 9.98321 108.038 8.52644 111.662 8.52644C116.226 8.52644 118.654 11.0846 118.654 16.2355V26.0759H120.466ZM111.408 24.1226V17.835C109.234 18.439 108.401 19.7891 108.401 21.6719C108.401 23.342 109.126 24.2292 110.574 24.2292C110.855 24.2215 111.135 24.1858 111.408 24.1226ZM143.022 26.0759V26.6446H133.964V23.8378C132.044 25.7574 129.798 27 127.659 27C123.964 27 121.21 24.0512 121.21 18.5802C121.21 12.6826 124.653 8.52644 129.616 8.52644C131.536 8.52644 132.84 9.0944 133.963 9.84122V4.93826L131.898 3.19751L141.21 0V26.0759H143.022ZM133.964 23.3412V10.4445C133.457 10.0899 132.804 9.91182 132.188 9.91182C130.304 9.91182 128.964 12.1499 128.964 16.5555C128.964 21.3165 130.014 23.6966 132.442 23.6966C132.986 23.6966 133.457 23.5546 133.964 23.3412ZM160 23.4479C158.478 25.7213 156.051 27 152.682 27C147.573 27 143.37 23.5185 143.37 18.0123C143.37 12.8254 146.922 8.52644 152.718 8.52644C156.124 8.52644 158.478 10.4806 158.478 13.074C158.478 16.0229 156.16 18.6163 151.812 20.2151C153.877 22.2045 156.486 23.5193 158.913 23.5193C159.274 23.5193 159.637 23.484 159.963 23.4126L160 23.4479ZM147.862 11.8659C147.862 14.8148 149.421 17.7989 151.594 20.0017C152.608 18.723 153.007 17.3016 153.007 15.4902C153.007 12.3994 150.906 9.77061 149.349 9.77061C148.406 9.76983 147.862 10.5519 147.862 11.8659Z" fill="white"/>
<path d="M24.5272 11.4392C27.7486 11.4392 30.36 8.87844 30.36 5.71959C30.36 2.56075 27.7486 0 24.5272 0C21.3058 0 18.6944 2.56075 18.6944 5.71959C18.6944 8.87844 21.3058 11.4392 24.5272 11.4392Z" fill="url(#paint0_linear_28_455)"/>
</g>
<defs>
<linearGradient id="paint0_linear_28_455" x1="18.6944" y1="5.72038" x2="30.3608" y2="5.72038" gradientUnits="userSpaceOnUse">
<stop stop-color="#FFA72A"/>
<stop offset="1" stop-color="#FF7D15"/>
</linearGradient>
<clipPath id="clip0_28_455">
<rect width="160" height="27" fill="white"/>
</clipPath>
</defs>
</svg>
